<?xml version="1.0" encoding="iso-8859-1"?>
<!-- Generator: Adobe Illustrator 19.0.0, SVG Export Plug-In . SVG Version: 6.00 Build 0)  -->
<svg version="1.1" id="Layer_1" xmlns="http://www.w3.org/2000/svg" xmlns:xlink="http://www.w3.org/1999/xlink" x="0px" y="0px"
	 viewBox="0 0 512 512" style="enable-background:new 0 0 512 512;" xml:space="preserve">
<circle style="fill:#366796;" cx="256" cy="256" r="256"/>
<path style="fill:#273B7A;" d="M357.595,156.525c-24.383,9.249-50.921,7.359-77.46,2.936c-34.478-6.896-74.128-13.791-98.263,13.791
	c-29.306,34.478-32.754,87.919-79.3,110.33c-10.909,5.454-13.433,17.856-17.239,29.306l197.692,197.692
	c112.019-11.755,202.516-95.747,224.073-204.552L357.595,156.525z"/>
<path style="fill:#71E2EF;" d="M256,113.778c-78.546,0-142.222,63.674-142.222,142.222h56.889c0-47.128,38.205-85.333,85.333-85.333
	s85.333,38.205,85.333,85.333h56.889C398.222,177.452,334.546,113.778,256,113.778z"/>
<path style="fill:#5FD0D6;" d="M256,113.778v56.889c47.128,0,85.333,38.205,85.333,85.333h56.889
	C398.222,177.454,334.546,113.778,256,113.778z"/>
<rect x="85.333" y="256" style="fill:#38C6D9;" width="341.333" height="56.889"/>
<rect x="256" y="256" style="fill:#2FA9B2;" width="170.667" height="56.889"/>
<rect x="223.246" y="296.236" style="fill:#FFEDB5;" width="8.62" height="16.66"/>
<rect x="280.135" y="296.236" style="fill:#FDE085;" width="8.62" height="16.66"/>
<rect x="251.69" y="279.566" style="fill:#FFEDB5;" width="8.62" height="33.321"/>
<g>
	<rect x="256" y="279.566" style="fill:#FDE085;" width="4.31" height="33.321"/>
	<rect x="337.024" y="296.236" style="fill:#FDE085;" width="8.62" height="16.66"/>
	<rect x="308.579" y="279.566" style="fill:#FDE085;" width="8.62" height="33.321"/>
</g>
<g>
	<rect x="109.468" y="296.236" style="fill:#FFEDB5;" width="8.62" height="16.66"/>
	<rect x="166.357" y="296.236" style="fill:#FFEDB5;" width="8.62" height="16.66"/>
	<rect x="137.912" y="279.566" style="fill:#FFEDB5;" width="8.62" height="33.321"/>
	<rect x="194.801" y="279.566" style="fill:#FFEDB5;" width="8.62" height="33.321"/>
</g>
<g>
	<rect x="393.912" y="296.236" style="fill:#FDE085;" width="8.62" height="16.66"/>
	<rect x="365.468" y="279.566" style="fill:#FDE085;" width="8.62" height="33.321"/>
</g>
<g>
</g>
<g>
</g>
<g>
</g>
<g>
</g>
<g>
</g>
<g>
</g>
<g>
</g>
<g>
</g>
<g>
</g>
<g>
</g>
<g>
</g>
<g>
</g>
<g>
</g>
<g>
</g>
<g>
</g>
</svg>
