<svg id="visual" viewBox="0 0 900 600" width="900" height="600" xmlns="http://www.w3.org/2000/svg" xmlns:xlink="http://www.w3.org/1999/xlink" version="1.1"><rect x="0" y="0" width="900" height="600" fill="#001220"></rect><path d="M0 292L21.5 290.5C43 289 86 286 128.8 291.2C171.7 296.3 214.3 309.7 257.2 323C300 336.3 343 349.7 385.8 355.7C428.7 361.7 471.3 360.3 514.2 359.8C557 359.3 600 359.7 642.8 350.5C685.7 341.3 728.3 322.7 771.2 305.2C814 287.7 857 271.3 878.5 263.2L900 255L900 0L878.5 0C857 0 814 0 771.2 0C728.3 0 685.7 0 642.8 0C600 0 557 0 514.2 0C471.3 0 428.7 0 385.8 0C343 0 300 0 257.2 0C214.3 0 171.7 0 128.8 0C86 0 43 0 21.5 0L0 0Z" fill="#fa7268"></path><path d="M0 294L21.5 289.2C43 284.3 86 274.7 128.8 272.2C171.7 269.7 214.3 274.3 257.2 274.8C300 275.3 343 271.7 385.8 270.8C428.7 270 471.3 272 514.2 269.5C557 267 600 260 642.8 256.5C685.7 253 728.3 253 771.2 252.2C814 251.3 857 249.7 878.5 248.8L900 248L900 0L878.5 0C857 0 814 0 771.2 0C728.3 0 685.7 0 642.8 0C600 0 557 0 514.2 0C471.3 0 428.7 0 385.8 0C343 0 300 0 257.2 0C214.3 0 171.7 0 128.8 0C86 0 43 0 21.5 0L0 0Z" fill="#f46767"></path><path d="M0 219L21.5 223C43 227 86 235 128.8 241.3C171.7 247.7 214.3 252.3 257.2 250.8C300 249.3 343 241.7 385.8 230.8C428.7 220 471.3 206 514.2 202C557 198 600 204 642.8 213.3C685.7 222.7 728.3 235.3 771.2 239.8C814 244.3 857 240.7 878.5 238.8L900 237L900 0L878.5 0C857 0 814 0 771.2 0C728.3 0 685.7 0 642.8 0C600 0 557 0 514.2 0C471.3 0 428.7 0 385.8 0C343 0 300 0 257.2 0C214.3 0 171.7 0 128.8 0C86 0 43 0 21.5 0L0 0Z" fill="#ee5c67"></path><path d="M0 178L21.5 174C43 170 86 162 128.8 160C171.7 158 214.3 162 257.2 165.2C300 168.3 343 170.7 385.8 171.3C428.7 172 471.3 171 514.2 177.3C557 183.7 600 197.3 642.8 200.8C685.7 204.3 728.3 197.7 771.2 197.5C814 197.3 857 203.7 878.5 206.8L900 210L900 0L878.5 0C857 0 814 0 771.2 0C728.3 0 685.7 0 642.8 0C600 0 557 0 514.2 0C471.3 0 428.7 0 385.8 0C343 0 300 0 257.2 0C214.3 0 171.7 0 128.8 0C86 0 43 0 21.5 0L0 0Z" fill="#e75167"></path><path d="M0 171L21.5 165C43 159 86 147 128.8 139.3C171.7 131.7 214.3 128.3 257.2 128C300 127.7 343 130.3 385.8 133C428.7 135.7 471.3 138.3 514.2 141.7C557 145 600 149 642.8 147.5C685.7 146 728.3 139 771.2 138C814 137 857 142 878.5 144.5L900 147L900 0L878.5 0C857 0 814 0 771.2 0C728.3 0 685.7 0 642.8 0C600 0 557 0 514.2 0C471.3 0 428.7 0 385.8 0C343 0 300 0 257.2 0C214.3 0 171.7 0 128.8 0C86 0 43 0 21.5 0L0 0Z" fill="#df4667"></path><path d="M0 133L21.5 130.2C43 127.3 86 121.7 128.8 121.3C171.7 121 214.3 126 257.2 131.2C300 136.3 343 141.7 385.8 138.7C428.7 135.7 471.3 124.3 514.2 124.2C557 124 600 135 642.8 132C685.7 129 728.3 112 771.2 110.3C814 108.7 857 122.3 878.5 129.2L900 136L900 0L878.5 0C857 0 814 0 771.2 0C728.3 0 685.7 0 642.8 0C600 0 557 0 514.2 0C471.3 0 428.7 0 385.8 0C343 0 300 0 257.2 0C214.3 0 171.7 0 128.8 0C86 0 43 0 21.5 0L0 0Z" fill="#d73b67"></path><path d="M0 88L21.5 84.2C43 80.3 86 72.7 128.8 70C171.7 67.3 214.3 69.7 257.2 72.3C300 75 343 78 385.8 80.3C428.7 82.7 471.3 84.3 514.2 84C557 83.7 600 81.3 642.8 81.2C685.7 81 728.3 83 771.2 83.2C814 83.3 857 81.7 878.5 80.8L900 80L900 0L878.5 0C857 0 814 0 771.2 0C728.3 0 685.7 0 642.8 0C600 0 557 0 514.2 0C471.3 0 428.7 0 385.8 0C343 0 300 0 257.2 0C214.3 0 171.7 0 128.8 0C86 0 43 0 21.5 0L0 0Z" fill="#cf3068"></path><path d="M0 23L21.5 26.8C43 30.7 86 38.3 128.8 40.5C171.7 42.7 214.3 39.3 257.2 36.8C300 34.3 343 32.7 385.8 33C428.7 33.3 471.3 35.7 514.2 36.2C557 36.7 600 35.3 642.8 39.7C685.7 44 728.3 54 771.2 53.3C814 52.7 857 41.3 878.5 35.7L900 30L900 0L878.5 0C857 0 814 0 771.2 0C728.3 0 685.7 0 642.8 0C600 0 557 0 514.2 0C471.3 0 428.7 0 385.8 0C343 0 300 0 257.2 0C214.3 0 171.7 0 128.8 0C86 0 43 0 21.5 0L0 0Z" fill="#c62368"></path></svg>