<svg id="visual" viewBox="0 0 900 600" width="900" height="600" xmlns="http://www.w3.org/2000/svg" xmlns:xlink="http://www.w3.org/1999/xlink" version="1.1"><rect x="0" y="0" width="900" height="600" fill="#242535"></rect><path d="M0 224L21.5 243.8C43 263.7 86 303.3 128.8 312.7C171.7 322 214.3 301 257.2 292.3C300 283.7 343 287.3 385.8 276C428.7 264.7 471.3 238.3 514.2 211.5C557 184.7 600 157.3 642.8 162.5C685.7 167.7 728.3 205.3 771.2 210.3C814 215.3 857 187.7 878.5 173.8L900 160L900 601L878.5 601C857 601 814 601 771.2 601C728.3 601 685.7 601 642.8 601C600 601 557 601 514.2 601C471.3 601 428.7 601 385.8 601C343 601 300 601 257.2 601C214.3 601 171.7 601 128.8 601C86 601 43 601 21.5 601L0 601Z" fill="#fa7268"></path><path d="M0 315L21.5 304.3C43 293.7 86 272.3 128.8 253.8C171.7 235.3 214.3 219.7 257.2 218.5C300 217.3 343 230.7 385.8 239.3C428.7 248 471.3 252 514.2 250.7C557 249.3 600 242.7 642.8 258.7C685.7 274.7 728.3 313.3 771.2 306.7C814 300 857 248 878.5 222L900 196L900 601L878.5 601C857 601 814 601 771.2 601C728.3 601 685.7 601 642.8 601C600 601 557 601 514.2 601C471.3 601 428.7 601 385.8 601C343 601 300 601 257.2 601C214.3 601 171.7 601 128.8 601C86 601 43 601 21.5 601L0 601Z" fill="#ea5767"></path><path d="M0 292L21.5 296.7C43 301.3 86 310.7 128.8 311.2C171.7 311.7 214.3 303.3 257.2 292.5C300 281.7 343 268.3 385.8 287C428.7 305.7 471.3 356.3 514.2 367.2C557 378 600 349 642.8 325.8C685.7 302.7 728.3 285.3 771.2 295.8C814 306.3 857 344.7 878.5 363.8L900 383L900 601L878.5 601C857 601 814 601 771.2 601C728.3 601 685.7 601 642.8 601C600 601 557 601 514.2 601C471.3 601 428.7 601 385.8 601C343 601 300 601 257.2 601C214.3 601 171.7 601 128.8 601C86 601 43 601 21.5 601L0 601Z" fill="#d73b67"></path><path d="M0 392L21.5 390.8C43 389.7 86 387.3 128.8 393.3C171.7 399.3 214.3 413.7 257.2 396.3C300 379 343 330 385.8 310C428.7 290 471.3 299 514.2 310.3C557 321.7 600 335.3 642.8 334.7C685.7 334 728.3 319 771.2 324.8C814 330.7 857 357.3 878.5 370.7L900 384L900 601L878.5 601C857 601 814 601 771.2 601C728.3 601 685.7 601 642.8 601C600 601 557 601 514.2 601C471.3 601 428.7 601 385.8 601C343 601 300 601 257.2 601C214.3 601 171.7 601 128.8 601C86 601 43 601 21.5 601L0 601Z" fill="#c62368"></path><path d="M0 464L21.5 446.7C43 429.3 86 394.7 128.8 380.2C171.7 365.7 214.3 371.3 257.2 381.7C300 392 343 407 385.8 403.3C428.7 399.7 471.3 377.3 514.2 384.2C557 391 600 427 642.8 433.2C685.7 439.3 728.3 415.7 771.2 408C814 400.3 857 408.7 878.5 412.8L900 417L900 601L878.5 601C857 601 814 601 771.2 601C728.3 601 685.7 601 642.8 601C600 601 557 601 514.2 601C471.3 601 428.7 601 385.8 601C343 601 300 601 257.2 601C214.3 601 171.7 601 128.8 601C86 601 43 601 21.5 601L0 601Z" fill="#c62368"></path><path d="M0 422L21.5 428.8C43 435.7 86 449.3 128.8 459.7C171.7 470 214.3 477 257.2 475C300 473 343 462 385.8 458.8C428.7 455.7 471.3 460.3 514.2 467C557 473.7 600 482.3 642.8 477.7C685.7 473 728.3 455 771.2 445.3C814 435.7 857 434.3 878.5 433.7L900 433L900 601L878.5 601C857 601 814 601 771.2 601C728.3 601 685.7 601 642.8 601C600 601 557 601 514.2 601C471.3 601 428.7 601 385.8 601C343 601 300 601 257.2 601C214.3 601 171.7 601 128.8 601C86 601 43 601 21.5 601L0 601Z" fill="#d73b67"></path><path d="M0 531L21.5 525.2C43 519.3 86 507.7 128.8 501.3C171.7 495 214.3 494 257.2 493.8C300 493.7 343 494.3 385.8 492.2C428.7 490 471.3 485 514.2 480.8C557 476.7 600 473.3 642.8 477C685.7 480.7 728.3 491.3 771.2 498.3C814 505.3 857 508.7 878.5 510.3L900 512L900 601L878.5 601C857 601 814 601 771.2 601C728.3 601 685.7 601 642.8 601C600 601 557 601 514.2 601C471.3 601 428.7 601 385.8 601C343 601 300 601 257.2 601C214.3 601 171.7 601 128.8 601C86 601 43 601 21.5 601L0 601Z" fill="#ea5767"></path><path d="M0 524L21.5 529.3C43 534.7 86 545.3 128.8 543C171.7 540.7 214.3 525.3 257.2 516C300 506.7 343 503.3 385.8 503.5C428.7 503.7 471.3 507.3 514.2 514.7C557 522 600 533 642.8 538.3C685.7 543.7 728.3 543.3 771.2 543.5C814 543.7 857 544.3 878.5 544.7L900 545L900 601L878.5 601C857 601 814 601 771.2 601C728.3 601 685.7 601 642.8 601C600 601 557 601 514.2 601C471.3 601 428.7 601 385.8 601C343 601 300 601 257.2 601C214.3 601 171.7 601 128.8 601C86 601 43 601 21.5 601L0 601Z" fill="#fa7268"></path></svg>