<svg id="visual" viewBox="0 0 900 600" width="900" height="600" xmlns="http://www.w3.org/2000/svg" xmlns:xlink="http://www.w3.org/1999/xlink" version="1.1"><g stroke-width="1" stroke-linejoin="bevel"><path d="M438 300L448.3 277L422 269Z" fill="#0d1724" stroke="#0d1724"></path><path d="M448.3 277L419.7 241L422 269Z" fill="#091521" stroke="#091521"></path><path d="M368.7 248L373.7 289L422 269Z" fill="#0d1724" stroke="#0d1724"></path><path d="M422 269L373.7 289L438 300Z" fill="#212333" stroke="#212333"></path><path d="M373.7 289L444.7 342L438 300Z" fill="#0d1724" stroke="#0d1724"></path><path d="M438 300L444.7 342L448.3 277Z" fill="#091521" stroke="#091521"></path><path d="M549.3 347L491.3 242L448.3 277Z" fill="#161d2b" stroke="#161d2b"></path><path d="M448.3 277L491.3 242L419.7 241Z" fill="#1a1f2e" stroke="#1a1f2e"></path><path d="M419.7 241L368.7 248L422 269Z" fill="#161d2b" stroke="#161d2b"></path><path d="M392 398L449.3 391L444.7 342Z" fill="#0d1724" stroke="#0d1724"></path><path d="M444.7 342L549.3 347L448.3 277Z" fill="#0d1724" stroke="#0d1724"></path><path d="M373.7 289L392 398L444.7 342Z" fill="#1a1f2e" stroke="#1a1f2e"></path><path d="M368.7 248L310.4 293L373.7 289Z" fill="#101926" stroke="#101926"></path><path d="M373.7 289L353.4 408L392 398Z" fill="#00101c" stroke="#00101c"></path><path d="M449.3 391L549.3 347L444.7 342Z" fill="#091521" stroke="#091521"></path><path d="M328.4 160L293.1 255L368.7 248Z" fill="#1a1f2e" stroke="#1a1f2e"></path><path d="M368.7 248L293.1 255L310.4 293Z" fill="#131b29" stroke="#131b29"></path><path d="M284.1 318L353.4 408L310.4 293Z" fill="#04131f" stroke="#04131f"></path><path d="M310.4 293L353.4 408L373.7 289Z" fill="#131b29" stroke="#131b29"></path><path d="M473 465L510 418L449.3 391Z" fill="#04131f" stroke="#04131f"></path><path d="M513 151L453 137L491.3 242Z" fill="#131b29" stroke="#131b29"></path><path d="M491.3 242L453 137L419.7 241Z" fill="#1d2130" stroke="#1d2130"></path><path d="M419.7 241L328.4 160L368.7 248Z" fill="#101926" stroke="#101926"></path><path d="M293.1 255L284.1 318L310.4 293Z" fill="#00101c" stroke="#00101c"></path><path d="M581.9 223L513 151L491.3 242Z" fill="#1d2130" stroke="#1d2130"></path><path d="M443.7 456L449.3 391L392 398Z" fill="#242535" stroke="#242535"></path><path d="M449.3 391L510 418L549.3 347Z" fill="#212333" stroke="#212333"></path><path d="M396.7 108L328.4 160L419.7 241Z" fill="#00101c" stroke="#00101c"></path><path d="M549.3 347L581.9 223L491.3 242Z" fill="#242535" stroke="#242535"></path><path d="M273.4 192L275.4 241L293.1 255Z" fill="#00101c" stroke="#00101c"></path><path d="M293.1 255L236.9 280L284.1 318Z" fill="#161d2b" stroke="#161d2b"></path><path d="M390.7 485L443.7 456L392 398Z" fill="#1a1f2e" stroke="#1a1f2e"></path><path d="M510 418L576.6 379L549.3 347Z" fill="#101926" stroke="#101926"></path><path d="M549.3 347L600.6 239L581.9 223Z" fill="#00101c" stroke="#00101c"></path><path d="M612.6 338L600.6 239L549.3 347Z" fill="#1a1f2e" stroke="#1a1f2e"></path><path d="M520.3 63L493.3 106L513 151Z" fill="#0d1724" stroke="#0d1724"></path><path d="M493.3 106L421.7 107L453 137Z" fill="#091521" stroke="#091521"></path><path d="M453 137L396.7 108L419.7 241Z" fill="#0d1724" stroke="#0d1724"></path><path d="M421.7 107L396.7 108L453 137Z" fill="#1a1f2e" stroke="#1a1f2e"></path><path d="M219.9 195L273.4 192L203.1 165Z" fill="#0d1724" stroke="#0d1724"></path><path d="M328.4 160L273.4 192L293.1 255Z" fill="#1d2130" stroke="#1d2130"></path><path d="M443.7 456L473 465L449.3 391Z" fill="#00101c" stroke="#00101c"></path><path d="M510 418L566.3 459L576.6 379Z" fill="#1a1f2e" stroke="#1a1f2e"></path><path d="M284.1 318L307.4 422L353.4 408Z" fill="#131b29" stroke="#131b29"></path><path d="M353.4 408L390.7 485L392 398Z" fill="#04131f" stroke="#04131f"></path><path d="M443.7 456L490.3 534L473 465Z" fill="#242535" stroke="#242535"></path><path d="M520.3 63L513 151L606.9 61Z" fill="#091521" stroke="#091521"></path><path d="M513 151L493.3 106L453 137Z" fill="#242535" stroke="#242535"></path><path d="M576.6 379L612.6 338L549.3 347Z" fill="#161d2b" stroke="#161d2b"></path><path d="M421.7 107L416 94L396.7 108Z" fill="#242535" stroke="#242535"></path><path d="M230.9 95L273.4 192L328.4 160Z" fill="#04131f" stroke="#04131f"></path><path d="M493.3 106L416 94L421.7 107Z" fill="#1a1f2e" stroke="#1a1f2e"></path><path d="M612.6 338L618.6 244L600.6 239Z" fill="#0d1724" stroke="#0d1724"></path><path d="M600.6 239L618.6 244L581.9 223Z" fill="#091521" stroke="#091521"></path><path d="M576.6 379L616.6 338L612.6 338Z" fill="#00101c" stroke="#00101c"></path><path d="M612.6 338L616.6 338L618.6 244Z" fill="#04131f" stroke="#04131f"></path><path d="M241.1 228L236.9 280L275.4 241Z" fill="#242535" stroke="#242535"></path><path d="M275.4 241L236.9 280L293.1 255Z" fill="#161d2b" stroke="#161d2b"></path><path d="M284.1 318L256.9 370L307.4 422Z" fill="#04131f" stroke="#04131f"></path><path d="M223.1 303L256.9 370L284.1 318Z" fill="#091521" stroke="#091521"></path><path d="M273.4 192L241.1 228L275.4 241Z" fill="#242535" stroke="#242535"></path><path d="M307.4 422L390.7 485L353.4 408Z" fill="#242535" stroke="#242535"></path><path d="M218.9 235L223.1 303L236.9 280Z" fill="#242535" stroke="#242535"></path><path d="M236.9 280L223.1 303L284.1 318Z" fill="#242535" stroke="#242535"></path><path d="M490.3 534L501.3 487L473 465Z" fill="#0d1724" stroke="#0d1724"></path><path d="M473 465L501.3 487L510 418Z" fill="#131b29" stroke="#131b29"></path><path d="M576.6 379L599.9 433L616.6 338Z" fill="#212333" stroke="#212333"></path><path d="M219.9 195L218.9 235L241.1 228Z" fill="#212333" stroke="#212333"></path><path d="M241.1 228L218.9 235L236.9 280Z" fill="#161d2b" stroke="#161d2b"></path><path d="M501.3 487L566.3 459L510 418Z" fill="#131b29" stroke="#131b29"></path><path d="M566.3 459L599.9 433L576.6 379Z" fill="#00101c" stroke="#00101c"></path><path d="M273.4 192L219.9 195L241.1 228Z" fill="#04131f" stroke="#04131f"></path><path d="M318.4 79L328.4 160L396.7 108Z" fill="#161d2b" stroke="#161d2b"></path><path d="M371.4 0L318.4 79L396.7 108Z" fill="#1d2130" stroke="#1d2130"></path><path d="M635.6 117L513 151L581.9 223Z" fill="#212333" stroke="#212333"></path><path d="M493.3 106L520.3 63L416 94Z" fill="#212333" stroke="#212333"></path><path d="M416 94L371.4 0L396.7 108Z" fill="#00101c" stroke="#00101c"></path><path d="M501.3 487L533.6 504L566.3 459Z" fill="#242535" stroke="#242535"></path><path d="M566.3 459L612.9 533L599.9 433Z" fill="#091521" stroke="#091521"></path><path d="M490.3 534L533.6 504L501.3 487Z" fill="#131b29" stroke="#131b29"></path><path d="M599.9 433L671.1 353L616.6 338Z" fill="#131b29" stroke="#131b29"></path><path d="M616.6 338L683.9 324L618.6 244Z" fill="#1d2130" stroke="#1d2130"></path><path d="M671.1 353L683.9 324L616.6 338Z" fill="#04131f" stroke="#04131f"></path><path d="M618.6 244L676.9 205L581.9 223Z" fill="#0d1724" stroke="#0d1724"></path><path d="M256.9 370L200.1 411L307.4 422Z" fill="#091521" stroke="#091521"></path><path d="M267.4 524L363.7 558L390.7 485Z" fill="#212333" stroke="#212333"></path><path d="M223.1 303L199.9 392L256.9 370Z" fill="#091521" stroke="#091521"></path><path d="M131.6 330L199.9 392L223.1 303Z" fill="#242535" stroke="#242535"></path><path d="M158.6 211L223.1 303L218.9 235Z" fill="#101926" stroke="#101926"></path><path d="M718.4 252L676.9 205L618.6 244Z" fill="#161d2b" stroke="#161d2b"></path><path d="M413 600L490.3 534L390.7 485Z" fill="#1a1f2e" stroke="#1a1f2e"></path><path d="M390.7 485L490.3 534L443.7 456Z" fill="#131b29" stroke="#131b29"></path><path d="M230.9 95L203.1 165L273.4 192Z" fill="#0d1724" stroke="#0d1724"></path><path d="M219.9 195L158.6 211L218.9 235Z" fill="#091521" stroke="#091521"></path><path d="M676.9 205L635.6 117L581.9 223Z" fill="#1d2130" stroke="#1d2130"></path><path d="M199.9 392L200.1 411L256.9 370Z" fill="#161d2b" stroke="#161d2b"></path><path d="M709.1 440L688.9 359L671.1 353Z" fill="#1a1f2e" stroke="#1a1f2e"></path><path d="M671.1 353L688.9 359L683.9 324Z" fill="#00101c" stroke="#00101c"></path><path d="M683.9 324L709.4 288L618.6 244Z" fill="#0d1724" stroke="#0d1724"></path><path d="M709.1 440L671.1 353L599.9 433Z" fill="#04131f" stroke="#04131f"></path><path d="M318.4 79L230.9 95L328.4 160Z" fill="#242535" stroke="#242535"></path><path d="M752.1 368L709.4 288L683.9 324Z" fill="#1d2130" stroke="#1d2130"></path><path d="M180.9 135L158.6 211L203.1 165Z" fill="#131b29" stroke="#131b29"></path><path d="M203.1 165L158.6 211L219.9 195Z" fill="#101926" stroke="#101926"></path><path d="M199.9 392L110.6 411L200.1 411Z" fill="#0d1724" stroke="#0d1724"></path><path d="M267.4 524L390.7 485L307.4 422Z" fill="#00101c" stroke="#00101c"></path><path d="M635.6 117L606.9 61L513 151Z" fill="#00101c" stroke="#00101c"></path><path d="M515.3 0L423 0L520.3 63Z" fill="#242535" stroke="#242535"></path><path d="M520.3 63L423 0L416 94Z" fill="#161d2b" stroke="#161d2b"></path><path d="M239.1 0L196.1 76L230.9 95Z" fill="#131b29" stroke="#131b29"></path><path d="M709.4 288L718.4 252L618.6 244Z" fill="#00101c" stroke="#00101c"></path><path d="M704.9 103L663.1 61L635.6 117Z" fill="#212333" stroke="#212333"></path><path d="M635.6 117L663.1 61L606.9 61Z" fill="#1a1f2e" stroke="#1a1f2e"></path><path d="M423 0L379.7 0L416 94Z" fill="#161d2b" stroke="#161d2b"></path><path d="M379.7 0L371.4 0L416 94Z" fill="#00101c" stroke="#00101c"></path><path d="M236.1 505L267.4 524L307.4 422Z" fill="#1d2130" stroke="#1d2130"></path><path d="M230.9 95L180.9 135L203.1 165Z" fill="#1a1f2e" stroke="#1a1f2e"></path><path d="M602.6 0L515.3 0L520.3 63Z" fill="#101926" stroke="#101926"></path><path d="M200.1 411L236.1 505L307.4 422Z" fill="#212333" stroke="#212333"></path><path d="M745.1 242L729.1 249L709.4 288Z" fill="#0d1724" stroke="#0d1724"></path><path d="M709.4 288L729.1 249L718.4 252Z" fill="#131b29" stroke="#131b29"></path><path d="M718.4 252L729.1 249L676.9 205Z" fill="#04131f" stroke="#04131f"></path><path d="M158.6 211L131.6 330L223.1 303Z" fill="#131b29" stroke="#131b29"></path><path d="M216.1 531L223.9 531L236.1 505Z" fill="#091521" stroke="#091521"></path><path d="M522.6 584L612.9 533L533.6 504Z" fill="#00101c" stroke="#00101c"></path><path d="M533.6 504L612.9 533L566.3 459Z" fill="#04131f" stroke="#04131f"></path><path d="M522.6 584L533.6 504L490.3 534Z" fill="#101926" stroke="#101926"></path><path d="M339.7 600L391 594L363.7 558Z" fill="#091521" stroke="#091521"></path><path d="M363.7 558L413 600L390.7 485Z" fill="#161d2b" stroke="#161d2b"></path><path d="M509.3 600L522.6 584L490.3 534Z" fill="#0d1724" stroke="#0d1724"></path><path d="M239.1 0L230.9 95L318.4 79Z" fill="#161d2b" stroke="#161d2b"></path><path d="M230.9 95L196.1 76L180.9 135Z" fill="#161d2b" stroke="#161d2b"></path><path d="M120.6 146L109.3 234L158.6 211Z" fill="#242535" stroke="#242535"></path><path d="M807.7 322L745.1 242L709.4 288Z" fill="#101926" stroke="#101926"></path><path d="M729.1 249L745.1 242L676.9 205Z" fill="#00101c" stroke="#00101c"></path><path d="M752.1 368L683.9 324L688.9 359Z" fill="#131b29" stroke="#131b29"></path><path d="M391 594L413 600L363.7 558Z" fill="#101926" stroke="#101926"></path><path d="M612.9 533L709.1 440L599.9 433Z" fill="#1d2130" stroke="#1d2130"></path><path d="M724.4 138L635.6 117L676.9 205Z" fill="#1d2130" stroke="#1d2130"></path><path d="M606.9 61L602.6 0L520.3 63Z" fill="#0d1724" stroke="#0d1724"></path><path d="M236.1 505L223.9 531L267.4 524Z" fill="#242535" stroke="#242535"></path><path d="M267.4 524L294.4 579L363.7 558Z" fill="#091521" stroke="#091521"></path><path d="M216.1 531L236.1 505L103.6 489Z" fill="#242535" stroke="#242535"></path><path d="M413 600L509.3 600L490.3 534Z" fill="#091521" stroke="#091521"></path><path d="M522.6 584L584.9 600L612.9 533Z" fill="#212333" stroke="#212333"></path><path d="M250.9 576L294.4 579L267.4 524Z" fill="#131b29" stroke="#131b29"></path><path d="M391 594L339.7 600L413 600Z" fill="#0d1724" stroke="#0d1724"></path><path d="M120.6 146L158.6 211L180.9 135Z" fill="#0d1724" stroke="#0d1724"></path><path d="M158.6 211L102.3 300L131.6 330Z" fill="#1a1f2e" stroke="#1a1f2e"></path><path d="M764.1 153L724.4 138L676.9 205Z" fill="#242535" stroke="#242535"></path><path d="M724.4 138L704.9 103L635.6 117Z" fill="#161d2b" stroke="#161d2b"></path><path d="M509.3 600L518.6 600L522.6 584Z" fill="#0d1724" stroke="#0d1724"></path><path d="M103.6 489L236.1 505L200.1 411Z" fill="#1d2130" stroke="#1d2130"></path><path d="M250.9 576L298.4 600L294.4 579Z" fill="#091521" stroke="#091521"></path><path d="M294.4 579L339.7 600L363.7 558Z" fill="#1d2130" stroke="#1d2130"></path><path d="M109.3 234L102.3 300L158.6 211Z" fill="#091521" stroke="#091521"></path><path d="M131.6 330L113.3 378L199.9 392Z" fill="#04131f" stroke="#04131f"></path><path d="M620.6 4L606.9 61L663.1 61Z" fill="#1a1f2e" stroke="#1a1f2e"></path><path d="M620.6 4L602.6 0L606.9 61Z" fill="#161d2b" stroke="#161d2b"></path><path d="M738.4 434L752.1 368L688.9 359Z" fill="#1d2130" stroke="#1d2130"></path><path d="M97.6 349L113.3 378L131.6 330Z" fill="#131b29" stroke="#131b29"></path><path d="M644.1 0L620.6 4L663.1 61Z" fill="#091521" stroke="#091521"></path><path d="M131.6 40L120.6 146L180.9 135Z" fill="#091521" stroke="#091521"></path><path d="M102.3 300L97.6 349L131.6 330Z" fill="#0d1724" stroke="#0d1724"></path><path d="M737.4 519L738.4 434L709.1 440Z" fill="#0d1724" stroke="#0d1724"></path><path d="M709.1 440L738.4 434L688.9 359Z" fill="#131b29" stroke="#131b29"></path><path d="M371.4 0L239.1 0L318.4 79Z" fill="#1d2130" stroke="#1d2130"></path><path d="M131.6 40L108.6 147L120.6 146Z" fill="#04131f" stroke="#04131f"></path><path d="M250.9 576L267.4 524L223.9 531Z" fill="#1d2130" stroke="#1d2130"></path><path d="M294.4 579L298.4 600L339.7 600Z" fill="#212333" stroke="#212333"></path><path d="M216.1 531L250.9 576L223.9 531Z" fill="#101926" stroke="#101926"></path><path d="M29.3 357L110.6 411L113.3 378Z" fill="#0d1724" stroke="#0d1724"></path><path d="M113.3 378L110.6 411L199.9 392Z" fill="#101926" stroke="#101926"></path><path d="M216.1 531L219.1 600L250.9 576Z" fill="#0d1724" stroke="#0d1724"></path><path d="M103.6 489L114.3 432L84.6 459Z" fill="#212333" stroke="#212333"></path><path d="M110.6 411L114.3 432L200.1 411Z" fill="#242535" stroke="#242535"></path><path d="M131.6 40L180.9 135L196.1 76Z" fill="#131b29" stroke="#131b29"></path><path d="M120.6 146L108.6 147L109.3 234Z" fill="#0d1724" stroke="#0d1724"></path><path d="M109.3 234L38.3 233L102.3 300Z" fill="#212333" stroke="#212333"></path><path d="M102.3 300L29.3 357L97.6 349Z" fill="#242535" stroke="#242535"></path><path d="M518.6 600L584.9 600L522.6 584Z" fill="#091521" stroke="#091521"></path><path d="M612.9 533L677.9 542L709.1 440Z" fill="#161d2b" stroke="#161d2b"></path><path d="M678.9 0L644.1 0L663.1 61Z" fill="#00101c" stroke="#00101c"></path><path d="M620.6 4L644.1 0L602.6 0Z" fill="#131b29" stroke="#131b29"></path><path d="M239.1 0L218.9 0L196.1 76Z" fill="#161d2b" stroke="#161d2b"></path><path d="M801.7 494L763.4 410L738.4 434Z" fill="#161d2b" stroke="#161d2b"></path><path d="M738.4 434L763.4 410L752.1 368Z" fill="#1a1f2e" stroke="#1a1f2e"></path><path d="M804.7 218L764.1 153L745.1 242Z" fill="#1d2130" stroke="#1d2130"></path><path d="M584.9 600L677.9 542L612.9 533Z" fill="#161d2b" stroke="#161d2b"></path><path d="M724.4 138L743.4 80L704.9 103Z" fill="#1a1f2e" stroke="#1a1f2e"></path><path d="M704.9 103L743.4 80L663.1 61Z" fill="#131b29" stroke="#131b29"></path><path d="M745.1 242L764.1 153L676.9 205Z" fill="#04131f" stroke="#04131f"></path><path d="M807.7 322L709.4 288L752.1 368Z" fill="#0d1724" stroke="#0d1724"></path><path d="M764.1 153L743.4 80L724.4 138Z" fill="#1d2130" stroke="#1d2130"></path><path d="M743.4 80L678.9 0L663.1 61Z" fill="#131b29" stroke="#131b29"></path><path d="M0 179L69.3 180L0 177Z" fill="#212333" stroke="#212333"></path><path d="M108.6 147L69.3 180L109.3 234Z" fill="#04131f" stroke="#04131f"></path><path d="M763.4 410L807.7 322L752.1 368Z" fill="#161d2b" stroke="#161d2b"></path><path d="M828.7 305L804.7 218L745.1 242Z" fill="#161d2b" stroke="#161d2b"></path><path d="M764.1 153L792.4 138L743.4 80Z" fill="#1a1f2e" stroke="#1a1f2e"></path><path d="M208.9 600L219.1 600L216.1 531Z" fill="#242535" stroke="#242535"></path><path d="M250.9 576L219.1 600L298.4 600Z" fill="#00101c" stroke="#00101c"></path><path d="M677.9 542L737.4 519L709.1 440Z" fill="#1d2130" stroke="#1d2130"></path><path d="M887.7 372L828.7 305L807.7 322Z" fill="#00101c" stroke="#00101c"></path><path d="M777.7 535L737.4 519L761.1 594Z" fill="#00101c" stroke="#00101c"></path><path d="M218.9 0L131.6 40L196.1 76Z" fill="#04131f" stroke="#04131f"></path><path d="M111.6 600L208.9 600L216.1 531Z" fill="#00101c" stroke="#00101c"></path><path d="M84.6 459L114.3 432L110.6 411Z" fill="#04131f" stroke="#04131f"></path><path d="M114.3 432L103.6 489L200.1 411Z" fill="#1a1f2e" stroke="#1a1f2e"></path><path d="M84.6 459L110.6 411L0 418Z" fill="#1d2130" stroke="#1d2130"></path><path d="M804.7 218L792.4 138L764.1 153Z" fill="#161d2b" stroke="#161d2b"></path><path d="M743.4 80L769.1 19L678.9 0Z" fill="#0d1724" stroke="#0d1724"></path><path d="M29.3 357L113.3 378L97.6 349Z" fill="#161d2b" stroke="#161d2b"></path><path d="M0 179L38.3 233L69.3 180Z" fill="#00101c" stroke="#00101c"></path><path d="M69.3 180L38.3 233L109.3 234Z" fill="#0d1724" stroke="#0d1724"></path><path d="M807.7 322L828.7 305L745.1 242Z" fill="#1a1f2e" stroke="#1a1f2e"></path><path d="M900 137L797.7 85L792.4 138Z" fill="#1d2130" stroke="#1d2130"></path><path d="M887.7 372L807.7 322L763.4 410Z" fill="#1d2130" stroke="#1d2130"></path><path d="M0 327L29.3 357L102.3 300Z" fill="#101926" stroke="#101926"></path><path d="M797.7 85L770.7 48L743.4 80Z" fill="#131b29" stroke="#131b29"></path><path d="M884.7 185L792.4 138L804.7 218Z" fill="#212333" stroke="#212333"></path><path d="M792.4 138L797.7 85L743.4 80Z" fill="#0d1724" stroke="#0d1724"></path><path d="M218.9 0L121.3 0L131.6 40Z" fill="#161d2b" stroke="#161d2b"></path><path d="M131.6 40L0 143L108.6 147Z" fill="#04131f" stroke="#04131f"></path><path d="M777.7 535L801.7 494L737.4 519Z" fill="#04131f" stroke="#04131f"></path><path d="M737.4 519L801.7 494L738.4 434Z" fill="#0d1724" stroke="#0d1724"></path><path d="M742.4 600L737.4 519L677.9 542Z" fill="#1d2130" stroke="#1d2130"></path><path d="M877.7 0L769.1 19L770.7 48Z" fill="#101926" stroke="#101926"></path><path d="M770.7 48L769.1 19L743.4 80Z" fill="#1a1f2e" stroke="#1a1f2e"></path><path d="M38.3 233L0 327L102.3 300Z" fill="#0d1724" stroke="#0d1724"></path><path d="M29.3 357L0 418L110.6 411Z" fill="#00101c" stroke="#00101c"></path><path d="M37.3 508L111.6 600L103.6 489Z" fill="#04131f" stroke="#04131f"></path><path d="M0 179L0 327L38.3 233Z" fill="#00101c" stroke="#00101c"></path><path d="M0 327L0 331L29.3 357Z" fill="#0d1724" stroke="#0d1724"></path><path d="M121.3 0L96.6 0L131.6 40Z" fill="#1a1f2e" stroke="#1a1f2e"></path><path d="M584.9 600L742.4 600L677.9 542Z" fill="#242535" stroke="#242535"></path><path d="M777.7 535L804.4 529L801.7 494Z" fill="#1a1f2e" stroke="#1a1f2e"></path><path d="M0 177L69.3 180L0 143Z" fill="#161d2b" stroke="#161d2b"></path><path d="M877.7 0L774.4 0L769.1 19Z" fill="#1a1f2e" stroke="#1a1f2e"></path><path d="M769.1 19L774.4 0L678.9 0Z" fill="#091521" stroke="#091521"></path><path d="M0 143L69.3 180L108.6 147Z" fill="#101926" stroke="#101926"></path><path d="M761.1 594L804.4 529L777.7 535Z" fill="#1a1f2e" stroke="#1a1f2e"></path><path d="M900 415L887.7 372L763.4 410Z" fill="#1a1f2e" stroke="#1a1f2e"></path><path d="M37.3 508L103.6 489L84.6 459Z" fill="#04131f" stroke="#04131f"></path><path d="M103.6 489L111.6 600L216.1 531Z" fill="#131b29" stroke="#131b29"></path><path d="M0 331L0 418L29.3 357Z" fill="#091521" stroke="#091521"></path><path d="M742.4 600L761.1 594L737.4 519Z" fill="#04131f" stroke="#04131f"></path><path d="M0 447L37.3 508L84.6 459Z" fill="#1d2130" stroke="#1d2130"></path><path d="M5.3 10L0 143L131.6 40Z" fill="#242535" stroke="#242535"></path><path d="M742.4 600L762.1 600L761.1 594Z" fill="#101926" stroke="#101926"></path><path d="M761.1 594L762.1 600L804.4 529Z" fill="#242535" stroke="#242535"></path><path d="M0 418L0 447L84.6 459Z" fill="#101926" stroke="#101926"></path><path d="M900 230L884.7 185L804.7 218Z" fill="#04131f" stroke="#04131f"></path><path d="M797.7 85L877.7 0L770.7 48Z" fill="#161d2b" stroke="#161d2b"></path><path d="M900 230L804.7 218L828.7 305Z" fill="#04131f" stroke="#04131f"></path><path d="M900 415L763.4 410L900 424Z" fill="#161d2b" stroke="#161d2b"></path><path d="M900 364L900 230L828.7 305Z" fill="#101926" stroke="#101926"></path><path d="M887.7 372L900 364L828.7 305Z" fill="#212333" stroke="#212333"></path><path d="M900 415L900 364L887.7 372Z" fill="#131b29" stroke="#131b29"></path><path d="M900 424L801.7 494L900 438Z" fill="#0d1724" stroke="#0d1724"></path><path d="M900 424L763.4 410L801.7 494Z" fill="#212333" stroke="#212333"></path><path d="M900 438L801.7 494L900 489Z" fill="#0d1724" stroke="#0d1724"></path><path d="M900 230L900 137L884.7 185Z" fill="#00101c" stroke="#00101c"></path><path d="M884.7 185L900 137L792.4 138Z" fill="#1a1f2e" stroke="#1a1f2e"></path><path d="M900 489L801.7 494L804.4 529Z" fill="#00101c" stroke="#00101c"></path><path d="M96.6 0L5.3 10L131.6 40Z" fill="#04131f" stroke="#04131f"></path><path d="M900 137L900 85L797.7 85Z" fill="#0d1724" stroke="#0d1724"></path><path d="M893.7 600L900 489L804.4 529Z" fill="#212333" stroke="#212333"></path><path d="M0 0L0 10L5.3 10Z" fill="#161d2b" stroke="#161d2b"></path><path d="M5.3 10L0 10L0 143Z" fill="#1a1f2e" stroke="#1a1f2e"></path><path d="M96.6 0L0 0L5.3 10Z" fill="#091521" stroke="#091521"></path><path d="M900 85L900 64L797.7 85Z" fill="#1d2130" stroke="#1d2130"></path><path d="M0 599L16.3 600L37.3 508Z" fill="#1d2130" stroke="#1d2130"></path><path d="M37.3 508L16.3 600L111.6 600Z" fill="#242535" stroke="#242535"></path><path d="M900 64L877.7 0L797.7 85Z" fill="#131b29" stroke="#131b29"></path><path d="M0 447L0 599L37.3 508Z" fill="#04131f" stroke="#04131f"></path><path d="M0 599L0 600L16.3 600Z" fill="#04131f" stroke="#04131f"></path><path d="M900 64L900 0L877.7 0Z" fill="#161d2b" stroke="#161d2b"></path><path d="M762.1 600L893.7 600L804.4 529Z" fill="#091521" stroke="#091521"></path><path d="M893.7 600L900 600L900 489Z" fill="#242535" stroke="#242535"></path></g></svg>