<svg id="visual" viewBox="0 0 900 600" width="900" height="600" xmlns="http://www.w3.org/2000/svg" xmlns:xlink="http://www.w3.org/1999/xlink" version="1.1"><path d="M0 37L11.5 36C23 35 46 33 69 32C92 31 115 31 138.2 37C161.3 43 184.7 55 207.8 56C231 57 254 47 277 51C300 55 323 73 346 78C369 83 392 75 415.2 67C438.3 59 461.7 51 484.8 51C508 51 531 59 554 59C577 59 600 51 623 53C646 55 669 67 692.2 69C715.3 71 738.7 63 761.8 64C785 65 808 75 831 72C854 69 877 53 888.5 45L900 37L900 0L888.5 0C877 0 854 0 831 0C808 0 785 0 761.8 0C738.7 0 715.3 0 692.2 0C669 0 646 0 623 0C600 0 577 0 554 0C531 0 508 0 484.8 0C461.7 0 438.3 0 415.2 0C392 0 369 0 346 0C323 0 300 0 277 0C254 0 231 0 207.8 0C184.7 0 161.3 0 138.2 0C115 0 92 0 69 0C46 0 23 0 11.5 0L0 0Z" fill="#f2cb84"></path><path d="M0 103L11.5 106C23 109 46 115 69 126C92 137 115 153 138.2 164C161.3 175 184.7 181 207.8 171C231 161 254 135 277 139C300 143 323 177 346 195C369 213 392 215 415.2 215C438.3 215 461.7 213 484.8 203C508 193 531 175 554 176C577 177 600 197 623 206C646 215 669 213 692.2 225C715.3 237 738.7 263 761.8 251C785 239 808 189 831 162C854 135 877 131 888.5 129L900 127L900 35L888.5 43C877 51 854 67 831 70C808 73 785 63 761.8 62C738.7 61 715.3 69 692.2 67C669 65 646 53 623 51C600 49 577 57 554 57C531 57 508 49 484.8 49C461.7 49 438.3 57 415.2 65C392 73 369 81 346 76C323 71 300 53 277 49C254 45 231 55 207.8 54C184.7 53 161.3 41 138.2 35C115 29 92 29 69 30C46 31 23 33 11.5 34L0 35Z" fill="#ebb856"></path><path d="M0 229L11.5 227C23 225 46 221 69 230C92 239 115 261 138.2 271C161.3 281 184.7 279 207.8 269C231 259 254 241 277 243C300 245 323 267 346 283C369 299 392 309 415.2 307C438.3 305 461.7 291 484.8 272C508 253 531 229 554 231C577 233 600 261 623 281C646 301 669 313 692.2 328C715.3 343 738.7 361 761.8 343C785 325 808 271 831 251C854 231 877 245 888.5 252L900 259L900 125L888.5 127C877 129 854 133 831 160C808 187 785 237 761.8 249C738.7 261 715.3 235 692.2 223C669 211 646 213 623 204C600 195 577 175 554 174C531 173 508 191 484.8 201C461.7 211 438.3 213 415.2 213C392 213 369 211 346 193C323 175 300 141 277 137C254 133 231 159 207.8 169C184.7 179 161.3 173 138.2 162C115 151 92 135 69 124C46 113 23 107 11.5 104L0 101Z" fill="#c2943c"></path><path d="M0 445L11.5 446C23 447 46 449 69 441C92 433 115 415 138.2 409C161.3 403 184.7 409 207.8 408C231 407 254 399 277 406C300 413 323 435 346 437C369 439 392 421 415.2 416C438.3 411 461.7 419 484.8 420C508 421 531 415 554 418C577 421 600 433 623 438C646 443 669 441 692.2 446C715.3 451 738.7 463 761.8 455C785 447 808 419 831 410C854 401 877 411 888.5 416L900 421L900 257L888.5 250C877 243 854 229 831 249C808 269 785 323 761.8 341C738.7 359 715.3 341 692.2 326C669 311 646 299 623 279C600 259 577 231 554 229C531 227 508 251 484.8 270C461.7 289 438.3 303 415.2 305C392 307 369 297 346 281C323 265 300 243 277 241C254 239 231 257 207.8 267C184.7 277 161.3 279 138.2 269C115 259 92 237 69 228C46 219 23 223 11.5 225L0 227Z" fill="#af8534"></path><path d="M0 499L11.5 496C23 493 46 487 69 480C92 473 115 465 138.2 467C161.3 469 184.7 481 207.8 477C231 473 254 453 277 453C300 453 323 473 346 478C369 483 392 473 415.2 473C438.3 473 461.7 483 484.8 485C508 487 531 481 554 484C577 487 600 499 623 504C646 509 669 507 692.2 507C715.3 507 738.7 509 761.8 499C785 489 808 467 831 463C854 459 877 473 888.5 480L900 487L900 419L888.5 414C877 409 854 399 831 408C808 417 785 445 761.8 453C738.7 461 715.3 449 692.2 444C669 439 646 441 623 436C600 431 577 419 554 416C531 413 508 419 484.8 418C461.7 417 438.3 409 415.2 414C392 419 369 437 346 435C323 433 300 411 277 404C254 397 231 405 207.8 406C184.7 407 161.3 401 138.2 407C115 413 92 431 69 439C46 447 23 445 11.5 444L0 443Z" fill="#c2943c"></path><path d="M0 553L11.5 554C23 555 46 557 69 557C92 557 115 555 138.2 556C161.3 557 184.7 561 207.8 559C231 557 254 549 277 550C300 551 323 561 346 564C369 567 392 563 415.2 560C438.3 557 461.7 555 484.8 558C508 561 531 569 554 572C577 575 600 573 623 568C646 563 669 555 692.2 553C715.3 551 738.7 555 761.8 553C785 551 808 543 831 545C854 547 877 559 888.5 565L900 571L900 485L888.5 478C877 471 854 457 831 461C808 465 785 487 761.8 497C738.7 507 715.3 505 692.2 505C669 505 646 507 623 502C600 497 577 485 554 482C531 479 508 485 484.8 483C461.7 481 438.3 471 415.2 471C392 471 369 481 346 476C323 471 300 451 277 451C254 451 231 471 207.8 475C184.7 479 161.3 467 138.2 465C115 463 92 471 69 478C46 485 23 491 11.5 494L0 497Z" fill="#ebb856"></path><path d="M0 601L11.5 601C23 601 46 601 69 601C92 601 115 601 138.2 601C161.3 601 184.7 601 207.8 601C231 601 254 601 277 601C300 601 323 601 346 601C369 601 392 601 415.2 601C438.3 601 461.7 601 484.8 601C508 601 531 601 554 601C577 601 600 601 623 601C646 601 669 601 692.2 601C715.3 601 738.7 601 761.8 601C785 601 808 601 831 601C854 601 877 601 888.5 601L900 601L900 569L888.5 563C877 557 854 545 831 543C808 541 785 549 761.8 551C738.7 553 715.3 549 692.2 551C669 553 646 561 623 566C600 571 577 573 554 570C531 567 508 559 484.8 556C461.7 553 438.3 555 415.2 558C392 561 369 565 346 562C323 559 300 549 277 548C254 547 231 555 207.8 557C184.7 559 161.3 555 138.2 554C115 553 92 555 69 555C46 555 23 553 11.5 552L0 551Z" fill="#f2cb84"></path></svg>